  0
SECTION
  2
HEADER
  9
$ACADVER
  1
AC1014
  9
$HANDSEED
  5
FFFF
  9
$INSUNITS
 70
     0
  9
$MEASUREMENT
 70
     1
  0
ENDSEC
  0
SECTION
  2
TABLES
  0
TABLE
  2
VPORT
  5
8
330
0
100
AcDbSymbolTable
 70
     4
  0
VPORT
  5
2E
330
8
100
AcDbSymbolTableRecord
100
AcDbViewportTableRecord
  2
*ACTIVE
 70
     0
 10
0.0
 20
0.0
 11
1.0
 21
1.0
 12
210.0
 22
148.5
 13
0.0
 23
0.0
 14
10.0
 24
10.0
 15
10.0
 25
10.0
 16
0.0
 26
0.0
 36
1.0
 17
0.0
 27
0.0
 37
0.0
 40
341.0
 41
1.24
 42
50.0
 43
0.0
 44
0.0
 50
0.0
 51
0.0
 71
     0
 72
   100
 73
     1
 74
     3
 75
     0
 76
     0
 77
     0
 78
     0
  0
ENDTAB
  0
TABLE
  2
LTYPE
  5
5
330
0
100
AcDbSymbolTable
 70
     1
  0
LTYPE
  5
14
330
5
100
AcDbSymbolTableRecord
100
AcDbLinetypeTableRecord
  2
BYBLOCK
 70
     0
  3

 72
    65
 73
     0
 40
0.0
  0
LTYPE
  5
15
330
5
100
AcDbSymbolTableRecord
100
AcDbLinetypeTableRecord
  2
BYLAYER
 70
     0
  3

 72
    65
 73
     0
 40
0.0
  0
LTYPE
  5
16
330
5
100
AcDbSymbolTableRecord
100
AcDbLinetypeTableRecord
  2
CONTINUOUS
 70
     0
  3
Solid line
 72
    65
 73
     0
 40
0.0
  0
ENDTAB
  0
TABLE
  2
LAYER
  5
2
100
AcDbSymbolTable
 70
1
  0
LAYER
  5
50
100
AcDbSymbolTableRecord
100
AcDbLayerTableRecord
  2
0
 70
0
  6
CONTINUOUS
  0
ENDTAB
  0
TABLE
  2
STYLE
  5
3
330
0
100
AcDbSymbolTable
 70
     1
  0
STYLE
  5
11
330
3
100
AcDbSymbolTableRecord
100
AcDbTextStyleTableRecord
  2
STANDARD
 70
     0
 40
0.0
 41
1.0
 50
0.0
 71
     0
 42
2.5
  3
txt
  4

  0
ENDTAB
  0
TABLE
  2
VIEW
  5
6
330
0
100
AcDbSymbolTable
 70
     0
  0
ENDTAB
  0
TABLE
  2
UCS
  5
7
330
0
100
AcDbSymbolTable
 70
     0
  0
ENDTAB
  0
TABLE
  2
APPID
  5
9
330
0
100
AcDbSymbolTable
 70
     2
  0
APPID
  5
12
330
9
100
AcDbSymbolTableRecord
100
AcDbRegAppTableRecord
  2
ACAD
 70
     0
  0
ENDTAB
  0
TABLE
  2
DIMSTYLE
  5
A
330
0
100
AcDbSymbolTable
 70
     1
  0
DIMSTYLE
105
27
330
A
100
AcDbSymbolTableRecord
100
AcDbDimStyleTableRecord
  2
ISO-25
 70
     0
  3

  4

  5

  6

  7

 40
1.0
 41
2.5
 42
0.625
 43
3.75
 44
1.25
 45
0.0
 46
0.0
 47
0.0
 48
0.0
140
2.5
141
2.5
142
0.0
143
0.03937007874016
144
1.0
145
0.0
146
1.0
147
0.625
 71
     0
 72
     0
 73
     0
 74
     0
 75
     0
 76
     0
 77
     1
 78
     8
170
     0
171
     3
172
     1
173
     0
174
     0
175
     0
176
     0
177
     0
178
     0
270
     2
271
     2
272
     2
273
     2
274
     3
340
11
275
     0
280
     0
281
     0
282
     0
283
     0
284
     8
285
     0
286
     0
287
     3
288
     0
  0
ENDTAB
  0
TABLE
  2
BLOCK_RECORD
  5
1
330
0
100
AcDbSymbolTable
 70
     1
  0
BLOCK_RECORD
  5
1F
330
1
100
AcDbSymbolTableRecord
100
AcDbBlockTableRecord
  2
*MODEL_SPACE
  0
BLOCK_RECORD
  5
1B
330
1
100
AcDbSymbolTableRecord
100
AcDbBlockTableRecord
  2
*PAPER_SPACE
  0
ENDTAB
  0
ENDSEC
  0
SECTION
  2
BLOCKS
  0
BLOCK
  5
20
330
1F
100
AcDbEntity
  8
0
100
AcDbBlockBegin
  2
*MODEL_SPACE
 70
     0
 10
0.0
 20
0.0
 30
0.0
  3
*MODEL_SPACE
  1

  0
ENDBLK
  5
21
330
1F
100
AcDbEntity
  8
0
100
AcDbBlockEnd
  0
BLOCK
  5
1C
330
1B
100
AcDbEntity
 67
     1
  8
0
100
AcDbBlockBegin
  2
*PAPER_SPACE
  1

  0
ENDBLK
  5
1D
330
1B
100
AcDbEntity
 67
     1
  8
0
100
AcDbBlockEnd
  0
ENDSEC
  0
SECTION
  2
ENTITIES
  0
LWPOLYLINE
  5
100
100
AcDbEntity
  8
0
 62
7
100
AcDbPolyline
 90
77
 70
1
 10
59.338320
 20
116.193500
 30
0.0
 10
52.657320
 20
115.894375
 30
0.0
 10
46.525320
 20
115.099500
 30
0.0
 10
42.691738
 20
114.242615
 30
0.0
 10
39.644039
 20
113.164422
 30
0.0
 10
37.297543
 20
111.849111
 30
0.0
 10
35.567570
 20
110.280875
 30
0.0
 10
34.369441
 20
108.443904
 30
0.0
 10
33.618476
 20
106.322391
 30
0.0
 10
33.229996
 20
103.900525
 30
0.0
 10
33.119320
 20
101.162500
 30
0.0
 10
33.119320
 20
90.943500
 30
0.0
 10
59.932320
 20
90.943500
 30
0.0
 10
59.932320
 20
87.537500
 30
0.0
 10
23.057320
 20
87.537500
 30
0.0
 10
20.187677
 20
87.318832
 30
0.0
 10
17.452554
 20
86.666406
 30
0.0
 10
14.895533
 20
85.585590
 30
0.0
 10
12.560195
 20
84.081750
 30
0.0
 10
10.490123
 20
82.160254
 30
0.0
 10
8.728898
 20
79.826469
 30
0.0
 10
7.320103
 20
77.085762
 30
0.0
 10
6.307320
 20
73.943500
 30
0.0
 10
5.495006
 20
70.277744
 30
0.0
 10
4.907117
 20
66.876703
 30
0.0
 10
4.547486
 20
63.645092
 30
0.0
 10
4.419945
 20
60.487625
 30
0.0
 10
4.528326
 20
57.309018
 30
0.0
 10
4.876461
 20
54.013984
 30
0.0
 10
5.468181
 20
50.507240
 30
0.0
 10
6.307320
 20
46.693500
 30
0.0
 10
7.146933
 20
43.830309
 30
0.0
 10
8.241664
 20
41.220594
 30
0.0
 10
9.598472
 20
38.903895
 30
0.0
 10
11.224320
 20
36.919750
 30
0.0
 10
13.126168
 20
35.307699
 30
0.0
 10
15.310976
 20
34.107281
 30
0.0
 10
17.785707
 20
33.358035
 30
0.0
 10
20.557320
 20
33.099500
 30
0.0
 10
29.775320
 20
33.099500
 30
0.0
 10
29.775320
 20
45.349500
 30
0.0
 10
29.863532
 20
46.995001
 30
0.0
 10
30.122091
 20
48.606148
 30
0.0
 10
30.541887
 20
50.173034
 30
0.0
 10
31.113804
 20
51.685750
 30
0.0
 10
31.828732
 20
53.134388
 30
0.0
 10
32.677556
 20
54.509039
 30
0.0
 10
34.740445
 20
56.996750
 30
0.0
 10
35.936284
 20
58.089993
 30
0.0
 10
37.229568
 20
59.069617
 30
0.0
 10
38.611185
 20
59.925714
 30
0.0
 10
40.072023
 20
60.648375
 30
0.0
 10
41.602968
 20
61.227692
 30
0.0
 10
43.194908
 20
61.653758
 30
0.0
 10
44.838729
 20
61.916663
 30
0.0
 10
46.525320
 20
62.006500
 30
0.0
 10
73.307320
 20
62.006500
 30
0.0
 10
76.023472
 20
62.284865
 30
0.0
 10
78.546664
 20
63.082547
 30
0.0
 10
80.824746
 20
64.343424
 30
0.0
 10
82.805570
 20
66.011375
 30
0.0
 10
84.436988
 20
68.030279
 30
0.0
 10
85.666851
 20
70.344016
 30
0.0
 10
86.443011
 20
72.896463
 30
0.0
 10
86.713320
 20
75.631500
 30
0.0
 10
86.713320
 20
101.162500
 30
0.0
 10
86.435711
 20
103.797781
 30
0.0
 10
85.641820
 20
106.235063
 30
0.0
 10
84.390054
 20
108.445750
 30
0.0
 10
82.738820
 20
110.401250
 30
0.0
 10
80.746523
 20
112.072969
 30
0.0
 10
78.471570
 20
113.432312
 30
0.0
 10
75.972367
 20
114.450688
 30
0.0
 10
73.307320
 20
115.099500
 30
0.0
 10
69.825992
 20
115.596969
 30
0.0
 10
66.314195
 20
115.942000
 30
0.0
 10
59.338320
 20
116.193500
 30
0.0
  0
LWPOLYLINE
  5
101
100
AcDbEntity
  8
0
 62
7
100
AcDbPolyline
 90
33
 70
1
 10
44.838320
 20
107.974500
 30
0.0
 10
45.849502
 20
107.870236
 30
0.0
 10
46.792586
 20
107.571266
 30
0.0
 10
47.647006
 20
107.098318
 30
0.0
 10
48.392195
 20
106.472125
 30
0.0
 10
49.007588
 20
105.713416
 30
0.0
 10
49.472617
 20
104.842922
 30
0.0
 10
49.766716
 20
103.881373
 30
0.0
 10
49.869320
 20
102.849500
 30
0.0
 10
49.766716
 20
101.822160
 30
0.0
 10
49.472617
 20
100.865719
 30
0.0
 10
49.007588
 20
100.000543
 30
0.0
 10
48.392195
 20
99.247000
 30
0.0
 10
47.647006
 20
98.625457
 30
0.0
 10
46.792586
 20
98.156281
 30
0.0
 10
45.849502
 20
97.859840
 30
0.0
 10
44.838320
 20
97.756500
 30
0.0
 10
43.823980
 20
97.859840
 30
0.0
 10
42.879414
 20
98.156281
 30
0.0
 10
42.024800
 20
98.625457
 30
0.0
 10
41.280320
 20
99.247000
 30
0.0
 10
40.666152
 20
100.000543
 30
0.0
 10
40.202476
 20
100.865719
 30
0.0
 10
39.909472
 20
101.822160
 30
0.0
 10
39.807320
 20
102.849500
 30
0.0
 10
39.909472
 20
103.881373
 30
0.0
 10
40.202476
 20
104.842922
 30
0.0
 10
40.666152
 20
105.713416
 30
0.0
 10
41.280320
 20
106.472125
 30
0.0
 10
42.024800
 20
107.098318
 30
0.0
 10
42.879414
 20
107.571266
 30
0.0
 10
43.823980
 20
107.870236
 30
0.0
 10
44.838320
 20
107.974500
 30
0.0
  0
LWPOLYLINE
  5
102
100
AcDbEntity
  8
0
 62
7
100
AcDbPolyline
 90
83
 70
1
 10
90.057320
 20
87.537500
 30
0.0
 10
90.057320
 20
75.631500
 30
0.0
 10
89.967252
 20
73.919360
 30
0.0
 10
89.703617
 20
72.250725
 30
0.0
 10
89.276271
 20
70.634832
 30
0.0
 10
88.695070
 20
69.080922
 30
0.0
 10
87.969869
 20
67.598232
 30
0.0
 10
87.110523
 20
66.196002
 30
0.0
 10
86.126888
 20
64.883470
 30
0.0
 10
85.028820
 20
63.669875
 30
0.0
 10
83.826174
 20
62.564456
 30
0.0
 10
82.528804
 20
61.576451
 30
0.0
 10
81.146568
 20
60.715100
 30
0.0
 10
79.689320
 20
59.989641
 30
0.0
 10
78.166916
 20
59.409312
 30
0.0
 10
76.589211
 20
58.983354
 30
0.0
 10
74.966060
 20
58.721003
 30
0.0
 10
73.307320
 20
58.631500
 30
0.0
 10
46.525320
 20
58.631500
 30
0.0
 10
43.843047
 20
58.347352
 30
0.0
 10
41.335757
 20
57.535625
 30
0.0
 10
39.059750
 20
56.257398
 30
0.0
 10
37.071320
 20
54.573750
 30
0.0
 10
35.426765
 20
52.545758
 30
0.0
 10
34.182383
 20
50.234500
 30
0.0
 10
33.394468
 20
47.701055
 30
0.0
 10
33.119320
 20
45.006500
 30
0.0
 10
33.119320
 20
19.474500
 30
0.0
 10
33.404681
 20
16.888432
 30
0.0
 10
34.217398
 20
14.573453
 30
0.0
 10
35.492420
 20
12.520154
 30
0.0
 10
37.164695
 20
10.719125
 30
0.0
 10
39.169174
 20
9.160955
 30
0.0
 10
41.440804
 20
7.836234
 30
0.0
 10
43.914537
 20
6.735553
 30
0.0
 10
46.525320
 20
5.849500
 30
0.0
 10
49.696580
 20
5.012330
 30
0.0
 10
52.862836
 20
4.382641
 30
0.0
 10
56.051802
 20
3.976287
 30
0.0
 10
59.291195
 20
3.809125
 30
0.0
 10
62.608728
 20
3.897010
 30
0.0
 10
66.032117
 20
4.255797
 30
0.0
 10
69.589076
 20
4.901342
 30
0.0
 10
73.307320
 20
5.849500
 30
0.0
 10
75.821347
 20
6.678910
 30
0.0
 10
78.249664
 20
7.715156
 30
0.0
 10
80.515371
 20
8.979637
 30
0.0
 10
82.541570
 20
10.493750
 30
0.0
 10
84.251363
 20
12.278895
 30
0.0
 10
85.567851
 20
14.356469
 30
0.0
 10
86.054575
 20
15.511604
 30
0.0
 10
86.414136
 20
16.747871
 30
0.0
 10
86.636922
 20
18.067945
 30
0.0
 10
86.713320
 20
19.474500
 30
0.0
 10
86.713320
 20
29.693500
 30
0.0
 10
59.932320
 20
29.693500
 30
0.0
 10
59.932320
 20
33.099500
 30
0.0
 10
100.119320
 20
33.099500
 30
0.0
 10
102.821650
 20
33.349012
 30
0.0
 10
105.120586
 20
34.076344
 30
0.0
 10
107.071170
 20
35.249691
 30
0.0
 10
108.728445
 20
36.837250
 30
0.0
 10
110.147455
 20
38.807215
 30
0.0
 10
111.383242
 20
41.127781
 30
0.0
 10
112.490849
 20
43.767145
 30
0.0
 10
113.525320
 20
46.693500
 30
0.0
 10
114.439189
 20
49.833928
 30
0.0
 10
115.083586
 20
52.979547
 30
0.0
 10
115.462693
 20
56.165736
 30
0.0
 10
115.580695
 20
59.427875
 30
0.0
 10
115.441775
 20
62.801342
 30
0.0
 10
115.050117
 20
66.321516
 30
0.0
 10
114.409904
 20
70.023775
 30
0.0
 10
113.525320
 20
73.943500
 30
0.0
 10
112.716599
 20
76.755012
 30
0.0
 10
111.715679
 20
79.340469
 30
0.0
 10
110.494799
 20
81.654004
 30
0.0
 10
109.026195
 20
83.649750
 30
0.0
 10
107.282107
 20
85.281840
 30
0.0
 10
105.234773
 20
86.504406
 30
0.0
 10
102.856431
 20
87.271582
 30
0.0
 10
100.119320
 20
87.537500
 30
0.0
 10
90.057320
 20
87.537500
 30
0.0
  0
LWPOLYLINE
  5
103
100
AcDbEntity
  8
0
 62
7
100
AcDbPolyline
 90
33
 70
1
 10
74.994320
 20
22.881500
 30
0.0
 10
76.008660
 20
22.778117
 30
0.0
 10
76.953226
 20
22.481563
 30
0.0
 10
77.807840
 20
22.012227
 30
0.0
 10
78.552320
 20
21.390500
 30
0.0
 10
79.166488
 20
20.636773
 30
0.0
 10
79.630164
 20
19.771438
 30
0.0
 10
79.923168
 20
18.814883
 30
0.0
 10
80.025320
 20
17.787500
 30
0.0
 10
79.923168
 20
16.755627
 30
0.0
 10
79.630164
 20
15.794078
 30
0.0
 10
79.166488
 20
14.923584
 30
0.0
 10
78.552320
 20
14.164875
 30
0.0
 10
77.807840
 20
13.538682
 30
0.0
 10
76.953226
 20
13.065734
 30
0.0
 10
76.008660
 20
12.766764
 30
0.0
 10
74.994320
 20
12.662500
 30
0.0
 10
73.982851
 20
12.766764
 30
0.0
 10
73.039632
 20
13.065734
 30
0.0
 10
72.185195
 20
13.538682
 30
0.0
 10
71.440070
 20
14.164875
 30
0.0
 10
70.824789
 20
14.923584
 30
0.0
 10
70.359882
 20
15.794078
 30
0.0
 10
70.065882
 20
16.755627
 30
0.0
 10
69.963320
 20
17.787500
 30
0.0
 10
70.065882
 20
18.814883
 30
0.0
 10
70.359882
 20
19.771438
 30
0.0
 10
70.824789
 20
20.636773
 30
0.0
 10
71.440070
 20
21.390500
 30
0.0
 10
72.185195
 20
22.012227
 30
0.0
 10
73.039632
 20
22.481563
 30
0.0
 10
73.982851
 20
22.778117
 30
0.0
 10
74.994320
 20
22.881500
 30
0.0
  0
ENDSEC
  0
SECTION
  2
OBJECTS
  0
DICTIONARY
  5
C
330
0
100
AcDbDictionary
  3
ACAD_GROUP
350
D
  3
ACAD_MLINESTYLE
350
17
  0
DICTIONARY
  5
D
330
C
100
AcDbDictionary
  0
DICTIONARY
  5
1A
330
C
100
AcDbDictionary
  0
DICTIONARY
  5
17
330
C
100
AcDbDictionary
  3
STANDARD
350
18
  0
DICTIONARY
  5
19
330
C
100
AcDbDictionary
  0
ENDSEC
  0
EOF
